<?xml version="1.0" encoding="utf-8"?>

<svg class="chart-svg"   preserveAspectRatio="xMinYMin meet" viewBox="0 0 243 158" xmlns="http://www.w3.org/2000/svg" version="1.0" fill-rule="evenodd" xmlns:xlink="http://www.w3.org/1999/xlink">
	<title>...</title>
	<desc>...</desc>
	<clipPath id="clip">
		<rect x="0" y="0" width="243.77952755905514" height="158.74015748031496"/>
	</clipPath>
	<g id="group" transform="scale(1,-1) translate(0,-158)" style="clip-path: url(#clip)">
		<g transform="">
			<g transform="">
				<path d="M 34,16 L 34,154.740157 Z" style="stroke: rgb(90%,93%,96%); stroke-linecap: butt; stroke-width: 0.25;"/>
				<path d="M 72.355906,16 L 72.355906,154.740157 Z" style="stroke: rgb(90%,93%,96%); stroke-linecap: butt; stroke-width: 0.25;"/>
				<path d="M 110.711811,16 L 110.711811,154.740157 Z" style="stroke: rgb(90%,93%,96%); stroke-linecap: butt; stroke-width: 0.25;"/>
				<path d="M 149.067717,16 L 149.067717,154.740157 Z" style="stroke: rgb(90%,93%,96%); stroke-linecap: butt; stroke-width: 0.25;"/>
				<path d="M 187.423622,16 L 187.423622,154.740157 Z" style="stroke: rgb(90%,93%,96%); stroke-linecap: butt; stroke-width: 0.25;"/>
				<path d="M 225.779528,16 L 225.779528,154.740157 Z" style="stroke: rgb(90%,93%,96%); stroke-linecap: butt; stroke-width: 0.25;"/>
				<path d="M 34,16 L 225.779528,16 Z" style="stroke: rgb(90%,93%,96%); stroke-linecap: butt; stroke-width: 0.25;"/>
				<path d="M 34,40.775028 L 225.779528,40.775028 Z" style="stroke: rgb(90%,93%,96%); stroke-linecap: butt; stroke-width: 0.25;"/>
				<path d="M 34,65.550056 L 225.779528,65.550056 Z" style="stroke: rgb(90%,93%,96%); stroke-linecap: butt; stroke-width: 0.25;"/>
				<path d="M 34,90.325084 L 225.779528,90.325084 Z" style="stroke: rgb(90%,93%,96%); stroke-linecap: butt; stroke-width: 0.25;"/>
				<path d="M 34,115.100112 L 225.779528,115.100112 Z" style="stroke: rgb(90%,93%,96%); stroke-linecap: butt; stroke-width: 0.25;"/>
				<path d="M 34,139.875141 L 225.779528,139.875141 Z" style="stroke: rgb(90%,93%,96%); stroke-linecap: butt; stroke-width: 0.25;"/>
				<g transform="">
					<rect x="40.10207587687903" y="16.0" width="8.71725125268432" height="132.91802587176602" style="stroke: rgb(0%,0%,0%); stroke-linecap: butt; stroke-width: 1; fill: rgb(12%,30%,47%); fill-rule: evenodd;"/>
					<rect x="78.45798138869006" y="16.0" width="8.71725125268432" height="96.37485939257591" style="stroke: rgb(0%,0%,0%); stroke-linecap: butt; stroke-width: 1; fill: rgb(12%,30%,47%); fill-rule: evenodd;"/>
					<rect x="116.81388690050109" y="16.0" width="8.71725125268432" height="89.19010123734532" style="stroke: rgb(0%,0%,0%); stroke-linecap: butt; stroke-width: 1; fill: rgb(12%,30%,47%); fill-rule: evenodd;"/>
					<rect x="155.16979241231212" y="16.0" width="8.71725125268432" height="136.75815523059615" style="stroke: rgb(0%,0%,0%); stroke-linecap: butt; stroke-width: 1; fill: rgb(12%,30%,47%); fill-rule: evenodd;"/>
					<rect x="193.52569792412316" y="16.0" width="8.71725125268432" height="81.63371766029246" style="stroke: rgb(0%,0%,0%); stroke-linecap: butt; stroke-width: 1; fill: rgb(12%,30%,47%); fill-rule: evenodd;"/>
					<rect x="48.81932712956335" y="16.0" width="8.71725125268432" height="25.022778402699657" style="stroke: rgb(0%,0%,0%); stroke-linecap: butt; stroke-width: 1; fill: rgb(18%,45%,71%); fill-rule: evenodd;"/>
					<rect x="87.17523264137438" y="16.0" width="8.71725125268432" height="17.34251968503937" style="stroke: rgb(0%,0%,0%); stroke-linecap: butt; stroke-width: 1; fill: rgb(18%,45%,71%); fill-rule: evenodd;"/>
					<rect x="125.53113815318541" y="16.0" width="8.717251252684335" height="5.822131608548929" style="stroke: rgb(0%,0%,0%); stroke-linecap: butt; stroke-width: 1; fill: rgb(18%,45%,71%); fill-rule: evenodd;"/>
					<rect x="163.88704366499644" y="16.0" width="8.71725125268432" height="41.99367266591676" style="stroke: rgb(0%,0%,0%); stroke-linecap: butt; stroke-width: 1; fill: rgb(18%,45%,71%); fill-rule: evenodd;"/>
					<rect x="202.24294917680749" y="16.0" width="8.71725125268432" height="47.19642857142857" style="stroke: rgb(0%,0%,0%); stroke-linecap: butt; stroke-width: 1; fill: rgb(18%,45%,71%); fill-rule: evenodd;"/>
					<rect x="57.536578382247676" y="16.0" width="8.717251252684328" height="96.12710911136107" style="stroke: rgb(0%,0%,0%); stroke-linecap: butt; stroke-width: 1; fill: rgb(77%,35%,6%); fill-rule: evenodd;"/>
					<rect x="95.8924838940587" y="16.0" width="8.71725125268432" height="100.09111361079864" style="stroke: rgb(0%,0%,0%); stroke-linecap: butt; stroke-width: 1; fill: rgb(77%,35%,6%); fill-rule: evenodd;"/>
					<rect x="134.24838940586974" y="16.0" width="8.71725125268432" height="41.99367266591676" style="stroke: rgb(0%,0%,0%); stroke-linecap: butt; stroke-width: 1; fill: rgb(77%,35%,6%); fill-rule: evenodd;"/>
					<rect x="172.60429491768076" y="16.0" width="8.71725125268432" height="113.7173790776153" style="stroke: rgb(0%,0%,0%); stroke-linecap: butt; stroke-width: 1; fill: rgb(77%,35%,6%); fill-rule: evenodd;"/>
					<rect x="210.9602004294918" y="16.0" width="8.71725125268432" height="138.74015748031496" style="stroke: rgb(0%,0%,0%); stroke-linecap: butt; stroke-width: 1; fill: rgb(77%,35%,6%); fill-rule: evenodd;"/>
					<g transform=""/>
				</g>
				<g transform="">
					<g transform="">
						<path d="M 34,16 L 225.779528,16 Z" style="stroke: rgb(78%,83%,87%); stroke-linecap: butt; stroke-width: 1;"/>
					</g>
					<g transform="">
						<path d="M 34,16 L 34,11 Z" style="stroke: rgb(78%,83%,87%); stroke-linecap: butt; stroke-width: 1;"/>
						<path d="M 72.355906,16 L 72.355906,11 Z" style="stroke: rgb(78%,83%,87%); stroke-linecap: butt; stroke-width: 1;"/>
						<path d="M 110.711811,16 L 110.711811,11 Z" style="stroke: rgb(78%,83%,87%); stroke-linecap: butt; stroke-width: 1;"/>
						<path d="M 149.067717,16 L 149.067717,11 Z" style="stroke: rgb(78%,83%,87%); stroke-linecap: butt; stroke-width: 1;"/>
						<path d="M 187.423622,16 L 187.423622,11 Z" style="stroke: rgb(78%,83%,87%); stroke-linecap: butt; stroke-width: 1;"/>
						<path d="M 225.779528,16 L 225.779528,11 Z" style="stroke: rgb(78%,83%,87%); stroke-linecap: butt; stroke-width: 1;"/>
					</g>
					<g transform="">
						<g transform=" matrix(1,0,0,1,53.177953,11)">
							<text x="-15.0" y="-7.5" style="font-family: 'Microsoft YaHei','PingFang SC','Hiragino Sans GB','Source Han Sans SC',sans-serif; font-size: 7.5px;fill: rgb(0%,0%,0%); stroke:none;" transform="translate(0,-15) scale(1,-1)">上海医药</text>
						</g>
						<g transform=" matrix(1,0,0,1,91.533858,11)">
							<text x="-11.25" y="-7.5" style="font-family: 'Microsoft YaHei','PingFang SC','Hiragino Sans GB','Source Han Sans SC',sans-serif; font-size: 7.5px;fill: rgb(0%,0%,0%); stroke:none;" transform="translate(0,-15) scale(1,-1)">九州通</text>
						</g>
						<g transform=" matrix(1,0,0,1,129.889764,11)">
							<text x="-15.0" y="-7.5" style="font-family: 'Microsoft YaHei','PingFang SC','Hiragino Sans GB','Source Han Sans SC',sans-serif; font-size: 7.5px;fill: rgb(0%,0%,0%); stroke:none;" transform="translate(0,-15) scale(1,-1)">重药控股</text>
						</g>
						<g transform=" matrix(1,0,0,1,168.245669,11)">
							<text x="-15.0" y="-7.5" style="font-family: 'Microsoft YaHei','PingFang SC','Hiragino Sans GB','Source Han Sans SC',sans-serif; font-size: 7.5px;fill: rgb(0%,0%,0%); stroke:none;" transform="translate(0,-15) scale(1,-1)">柳药集团</text>
						</g>
						<g transform=" matrix(1,0,0,1,206.601575,11)">
							<text x="-15.0" y="-7.5" style="font-family: 'Microsoft YaHei','PingFang SC','Hiragino Sans GB','Source Han Sans SC',sans-serif; font-size: 7.5px;fill: rgb(0%,0%,0%); stroke:none;" transform="translate(0,-15) scale(1,-1)">国药股份</text>
						</g>
					</g>
				</g>
				<g transform="">
					<g transform="">
						<path d="M 34,16 L 34,154.740157 Z" style="stroke: rgb(78%,83%,87%); stroke-linecap: butt; stroke-width: 1;"/>
					</g>
					<g transform="">
						<path d="M 34,16 L 29,16 Z" style="stroke: rgb(78%,83%,87%); stroke-linecap: butt; stroke-width: 1;"/>
						<path d="M 34,40.775028 L 29,40.775028 Z" style="stroke: rgb(78%,83%,87%); stroke-linecap: butt; stroke-width: 1;"/>
						<path d="M 34,65.550056 L 29,65.550056 Z" style="stroke: rgb(78%,83%,87%); stroke-linecap: butt; stroke-width: 1;"/>
						<path d="M 34,90.325084 L 29,90.325084 Z" style="stroke: rgb(78%,83%,87%); stroke-linecap: butt; stroke-width: 1;"/>
						<path d="M 34,115.100112 L 29,115.100112 Z" style="stroke: rgb(78%,83%,87%); stroke-linecap: butt; stroke-width: 1;"/>
						<path d="M 34,139.875141 L 29,139.875141 Z" style="stroke: rgb(78%,83%,87%); stroke-linecap: butt; stroke-width: 1;"/>
					</g>
					<g transform="">
						<g transform=" matrix(1,0,0,1,29,16)">
							<text x="-3.951416015625" y="-3.0" style="font-family: 'Microsoft YaHei','PingFang SC','Hiragino Sans GB','Source Han Sans SC',sans-serif; font-size: 7.5px;fill: rgb(0%,0%,0%); stroke:none;" transform="translate(0,-6) scale(1,-1)">0</text>
						</g>
						<g transform=" matrix(1,0,0,1,29,40.775028)">
							<text x="-3.951416015625" y="-3.0" style="font-family: 'Microsoft YaHei','PingFang SC','Hiragino Sans GB','Source Han Sans SC',sans-serif; font-size: 7.5px;fill: rgb(0%,0%,0%); stroke:none;" transform="translate(0,-6) scale(1,-1)">2</text>
						</g>
						<g transform=" matrix(1,0,0,1,29,65.550056)">
							<text x="-3.951416015625" y="-3.0" style="font-family: 'Microsoft YaHei','PingFang SC','Hiragino Sans GB','Source Han Sans SC',sans-serif; font-size: 7.5px;fill: rgb(0%,0%,0%); stroke:none;" transform="translate(0,-6) scale(1,-1)">4</text>
						</g>
						<g transform=" matrix(1,0,0,1,29,90.325084)">
							<text x="-3.951416015625" y="-3.0" style="font-family: 'Microsoft YaHei','PingFang SC','Hiragino Sans GB','Source Han Sans SC',sans-serif; font-size: 7.5px;fill: rgb(0%,0%,0%); stroke:none;" transform="translate(0,-6) scale(1,-1)">6</text>
						</g>
						<g transform=" matrix(1,0,0,1,29,115.100112)">
							<text x="-3.951416015625" y="-3.0" style="font-family: 'Microsoft YaHei','PingFang SC','Hiragino Sans GB','Source Han Sans SC',sans-serif; font-size: 7.5px;fill: rgb(0%,0%,0%); stroke:none;" transform="translate(0,-6) scale(1,-1)">8</text>
						</g>
						<g transform=" matrix(1,0,0,1,29,139.875141)">
							<text x="-7.90283203125" y="-3.0" style="font-family: 'Microsoft YaHei','PingFang SC','Hiragino Sans GB','Source Han Sans SC',sans-serif; font-size: 7.5px;fill: rgb(0%,0%,0%); stroke:none;" transform="translate(0,-6) scale(1,-1)">10</text>
						</g>
					</g>
				</g>
			</g>
		</g>
	</g>
</svg>
