<?xml version="1.0" encoding="utf-8"?>

<svg class="chart-svg"   preserveAspectRatio="xMinYMin meet" viewBox="0 0 243 158" xmlns="http://www.w3.org/2000/svg" version="1.0" fill-rule="evenodd" xmlns:xlink="http://www.w3.org/1999/xlink">
	<title>...</title>
	<desc>...</desc>
	<clipPath id="clip">
		<rect x="0" y="0" width="243.77952755905514" height="158.74015748031496"/>
	</clipPath>
	<g id="group" transform="scale(1,-1) translate(0,-158)" style="clip-path: url(#clip)">
		<g transform="">
			<g transform="">
				<g transform="">
					<g transform="">
						<path d="M 34,16 L 225.779528,16 Z" style="stroke: rgb(78%,83%,87%); stroke-linecap: butt; stroke-width: 1;"/>
					</g>
					<g transform="">
						<path d="M 49.981627,16 L 49.981627,11 Z" style="stroke: rgb(78%,83%,87%); stroke-linecap: butt; stroke-width: 1;"/>
						<path d="M 81.944882,16 L 81.944882,11 Z" style="stroke: rgb(78%,83%,87%); stroke-linecap: butt; stroke-width: 1;"/>
						<path d="M 113.908136,16 L 113.908136,11 Z" style="stroke: rgb(78%,83%,87%); stroke-linecap: butt; stroke-width: 1;"/>
						<path d="M 145.871391,16 L 145.871391,11 Z" style="stroke: rgb(78%,83%,87%); stroke-linecap: butt; stroke-width: 1;"/>
						<path d="M 177.834646,16 L 177.834646,11 Z" style="stroke: rgb(78%,83%,87%); stroke-linecap: butt; stroke-width: 1;"/>
						<path d="M 209.7979,16 L 209.7979,11 Z" style="stroke: rgb(78%,83%,87%); stroke-linecap: butt; stroke-width: 1;"/>
					</g>
					<g transform="">
						<g transform=" matrix(1,0,0,1,49.981627,11)">
							<text x="-7.90283203125" y="-7.5" style="font-family: 'Microsoft YaHei','PingFang SC','Hiragino Sans GB','Source Han Sans SC',sans-serif; font-size: 7.5px;fill: rgb(0%,0%,0%); stroke:none;" transform="translate(0,-15) scale(1,-1)">2020</text>
						</g>
						<g transform=" matrix(1,0,0,1,81.944882,11)">
							<text x="-7.90283203125" y="-7.5" style="font-family: 'Microsoft YaHei','PingFang SC','Hiragino Sans GB','Source Han Sans SC',sans-serif; font-size: 7.5px;fill: rgb(0%,0%,0%); stroke:none;" transform="translate(0,-15) scale(1,-1)">2021</text>
						</g>
						<g transform=" matrix(1,0,0,1,113.908136,11)">
							<text x="-7.90283203125" y="-7.5" style="font-family: 'Microsoft YaHei','PingFang SC','Hiragino Sans GB','Source Han Sans SC',sans-serif; font-size: 7.5px;fill: rgb(0%,0%,0%); stroke:none;" transform="translate(0,-15) scale(1,-1)">2022</text>
						</g>
						<g transform=" matrix(1,0,0,1,145.871391,11)">
							<text x="-7.90283203125" y="-7.5" style="font-family: 'Microsoft YaHei','PingFang SC','Hiragino Sans GB','Source Han Sans SC',sans-serif; font-size: 7.5px;fill: rgb(0%,0%,0%); stroke:none;" transform="translate(0,-15) scale(1,-1)">2023</text>
						</g>
						<g transform=" matrix(1,0,0,1,177.834646,11)">
							<text x="-7.90283203125" y="-7.5" style="font-family: 'Microsoft YaHei','PingFang SC','Hiragino Sans GB','Source Han Sans SC',sans-serif; font-size: 7.5px;fill: rgb(0%,0%,0%); stroke:none;" transform="translate(0,-15) scale(1,-1)">2024</text>
						</g>
						<g transform=" matrix(1,0,0,1,209.7979,11)">
							<text x="-7.90283203125" y="-7.5" style="font-family: 'Microsoft YaHei','PingFang SC','Hiragino Sans GB','Source Han Sans SC',sans-serif; font-size: 7.5px;fill: rgb(0%,0%,0%); stroke:none;" transform="translate(0,-15) scale(1,-1)">2025</text>
						</g>
					</g>
				</g>
				<g transform="">
					<g transform="">
						<path d="M 34,16 L 34,154.740157 Z" style="stroke: rgb(78%,83%,87%); stroke-linecap: butt; stroke-width: 1;"/>
					</g>
					<g transform="">
						<path d="M 34,33.778622 L 29,33.778622 Z" style="stroke: rgb(78%,83%,87%); stroke-linecap: butt; stroke-width: 1;"/>
						<path d="M 34,59.671578 L 29,59.671578 Z" style="stroke: rgb(78%,83%,87%); stroke-linecap: butt; stroke-width: 1;"/>
						<path d="M 34,85.564535 L 29,85.564535 Z" style="stroke: rgb(78%,83%,87%); stroke-linecap: butt; stroke-width: 1;"/>
						<path d="M 34,111.457491 L 29,111.457491 Z" style="stroke: rgb(78%,83%,87%); stroke-linecap: butt; stroke-width: 1;"/>
						<path d="M 34,137.350448 L 29,137.350448 Z" style="stroke: rgb(78%,83%,87%); stroke-linecap: butt; stroke-width: 1;"/>
					</g>
					<g transform="">
						<g transform=" matrix(1,0,0,1,29,33.778622)">
							<text x="-11.854248046875" y="-3.0" style="font-family: 'Microsoft YaHei','PingFang SC','Hiragino Sans GB','Source Han Sans SC',sans-serif; font-size: 7.5px;fill: rgb(0%,0%,0%); stroke:none;" transform="translate(0,-6) scale(1,-1)">500</text>
						</g>
						<g transform=" matrix(1,0,0,1,29,59.671578)">
							<text x="-15.8056640625" y="-3.0" style="font-family: 'Microsoft YaHei','PingFang SC','Hiragino Sans GB','Source Han Sans SC',sans-serif; font-size: 7.5px;fill: rgb(0%,0%,0%); stroke:none;" transform="translate(0,-6) scale(1,-1)">1000</text>
						</g>
						<g transform=" matrix(1,0,0,1,29,85.564535)">
							<text x="-15.8056640625" y="-3.0" style="font-family: 'Microsoft YaHei','PingFang SC','Hiragino Sans GB','Source Han Sans SC',sans-serif; font-size: 7.5px;fill: rgb(0%,0%,0%); stroke:none;" transform="translate(0,-6) scale(1,-1)">1500</text>
						</g>
						<g transform=" matrix(1,0,0,1,29,111.457491)">
							<text x="-15.8056640625" y="-3.0" style="font-family: 'Microsoft YaHei','PingFang SC','Hiragino Sans GB','Source Han Sans SC',sans-serif; font-size: 7.5px;fill: rgb(0%,0%,0%); stroke:none;" transform="translate(0,-6) scale(1,-1)">2000</text>
						</g>
						<g transform=" matrix(1,0,0,1,29,137.350448)">
							<text x="-15.8056640625" y="-3.0" style="font-family: 'Microsoft YaHei','PingFang SC','Hiragino Sans GB','Source Han Sans SC',sans-serif; font-size: 7.5px;fill: rgb(0%,0%,0%); stroke:none;" transform="translate(0,-6) scale(1,-1)">2500</text>
						</g>
					</g>
				</g>
				<path d="M 49.981627,16 L 49.981627,154.740157 Z" style="stroke: rgb(90%,93%,96%); stroke-linecap: butt; stroke-width: 0.25;"/>
				<path d="M 81.944882,16 L 81.944882,154.740157 Z" style="stroke: rgb(90%,93%,96%); stroke-linecap: butt; stroke-width: 0.25;"/>
				<path d="M 113.908136,16 L 113.908136,154.740157 Z" style="stroke: rgb(90%,93%,96%); stroke-linecap: butt; stroke-width: 0.25;"/>
				<path d="M 145.871391,16 L 145.871391,154.740157 Z" style="stroke: rgb(90%,93%,96%); stroke-linecap: butt; stroke-width: 0.25;"/>
				<path d="M 177.834646,16 L 177.834646,154.740157 Z" style="stroke: rgb(90%,93%,96%); stroke-linecap: butt; stroke-width: 0.25;"/>
				<path d="M 209.7979,16 L 209.7979,154.740157 Z" style="stroke: rgb(90%,93%,96%); stroke-linecap: butt; stroke-width: 0.25;"/>
				<path d="M 34,33.778622 L 225.779528,33.778622 Z" style="stroke: rgb(90%,93%,96%); stroke-linecap: butt; stroke-width: 0.25;"/>
				<path d="M 34,59.671578 L 225.779528,59.671578 Z" style="stroke: rgb(90%,93%,96%); stroke-linecap: butt; stroke-width: 0.25;"/>
				<path d="M 34,85.564535 L 225.779528,85.564535 Z" style="stroke: rgb(90%,93%,96%); stroke-linecap: butt; stroke-width: 0.25;"/>
				<path d="M 34,111.457491 L 225.779528,111.457491 Z" style="stroke: rgb(90%,93%,96%); stroke-linecap: butt; stroke-width: 0.25;"/>
				<path d="M 34,137.350448 L 225.779528,137.350448 Z" style="stroke: rgb(90%,93%,96%); stroke-linecap: butt; stroke-width: 0.25;"/>
				<g transform="">
					<polyline points="49.98163 107.2675, 81.94488 119.6521, 113.9081 128.0191, 145.8714 142.6818, 177.8346 150.4269, 209.7979 154.7402" style="stroke: rgb(12%,30%,47%); stroke-linecap: round; stroke-width: 1.3; fill: None; fill-rule: evenodd;"/>
					<circle cx="49.98162729658793" cy="107.26749313888084" r="1.4" style="stroke: rgb(0%,0%,0%); stroke-linecap: butt; stroke-width: 0.1; fill: rgb(12%,30%,47%); fill-rule: evenodd;"/>
					<circle cx="81.94488188976379" cy="119.65209424201483" r="1.4" style="stroke: rgb(0%,0%,0%); stroke-linecap: butt; stroke-width: 0.1; fill: rgb(12%,30%,47%); fill-rule: evenodd;"/>
					<circle cx="113.90813648293964" cy="128.01914421162957" r="1.4" style="stroke: rgb(0%,0%,0%); stroke-linecap: butt; stroke-width: 0.1; fill: rgb(12%,30%,47%); fill-rule: evenodd;"/>
					<circle cx="145.87139107611551" cy="142.68180762932286" r="1.4" style="stroke: rgb(0%,0%,0%); stroke-linecap: butt; stroke-width: 0.1; fill: rgb(12%,30%,47%); fill-rule: evenodd;"/>
					<circle cx="177.83464566929135" cy="150.4269087833464" r="1.4" style="stroke: rgb(0%,0%,0%); stroke-linecap: butt; stroke-width: 0.1; fill: rgb(12%,30%,47%); fill-rule: evenodd;"/>
					<circle cx="209.7979002624672" cy="154.74015748031496" r="1.4" style="stroke: rgb(0%,0%,0%); stroke-linecap: butt; stroke-width: 0.1; fill: rgb(12%,30%,47%); fill-rule: evenodd;"/>
					<polyline points="49.98163 65.29553, 81.94488 71.27525, 113.9081 80.60552, 145.8714 85.63704, 177.8346 86.50186, 209.7979 91.46295" style="stroke: rgb(18%,45%,71%); stroke-linecap: round; stroke-width: 1.3; fill: None; fill-rule: evenodd;"/>
					<circle cx="49.98162729658793" cy="65.29552848038587" r="1.4" style="stroke: rgb(0%,0%,0%); stroke-linecap: butt; stroke-width: 0.1; fill: rgb(18%,45%,71%); fill-rule: evenodd;"/>
					<circle cx="81.94488188976379" cy="71.27524785893021" r="1.4" style="stroke: rgb(0%,0%,0%); stroke-linecap: butt; stroke-width: 0.1; fill: rgb(18%,45%,71%); fill-rule: evenodd;"/>
					<circle cx="113.90813648293964" cy="80.60551581105923" r="1.4" style="stroke: rgb(0%,0%,0%); stroke-linecap: butt; stroke-width: 0.1; fill: rgb(18%,45%,71%); fill-rule: evenodd;"/>
					<circle cx="145.87139107611551" cy="85.63703512187044" r="1.4" style="stroke: rgb(0%,0%,0%); stroke-linecap: butt; stroke-width: 0.1; fill: rgb(18%,45%,71%); fill-rule: evenodd;"/>
					<circle cx="177.83464566929135" cy="86.50185986961175" r="1.4" style="stroke: rgb(0%,0%,0%); stroke-linecap: butt; stroke-width: 0.1; fill: rgb(18%,45%,71%); fill-rule: evenodd;"/>
					<circle cx="209.7979002624672" cy="91.46295033869075" r="1.4" style="stroke: rgb(0%,0%,0%); stroke-linecap: butt; stroke-width: 0.1; fill: rgb(18%,45%,71%); fill-rule: evenodd;"/>
					<polyline points="49.98163 31.30326, 81.94488 40.26274, 113.9081 43.01153, 145.8714 48.48427, 177.8346 49.60543, 209.7979 50.5816" style="stroke: rgb(77%,35%,6%); stroke-linecap: round; stroke-width: 1.3; fill: None; fill-rule: evenodd;"/>
					<circle cx="49.98162729658793" cy="31.30325516197837" r="1.4" style="stroke: rgb(0%,0%,0%); stroke-linecap: butt; stroke-width: 0.1; fill: rgb(77%,35%,6%); fill-rule: evenodd;"/>
					<circle cx="81.94488188976379" cy="40.26273597675242" r="1.4" style="stroke: rgb(0%,0%,0%); stroke-linecap: butt; stroke-width: 0.1; fill: rgb(77%,35%,6%); fill-rule: evenodd;"/>
					<circle cx="113.90813648293964" cy="43.01153224083082" r="1.4" style="stroke: rgb(0%,0%,0%); stroke-linecap: butt; stroke-width: 0.1; fill: rgb(77%,35%,6%); fill-rule: evenodd;"/>
					<circle cx="145.87139107611551" cy="48.48426753072922" r="1.4" style="stroke: rgb(0%,0%,0%); stroke-linecap: butt; stroke-width: 0.1; fill: rgb(77%,35%,6%); fill-rule: evenodd;"/>
					<circle cx="177.83464566929135" cy="49.60543254801064" r="1.4" style="stroke: rgb(0%,0%,0%); stroke-linecap: butt; stroke-width: 0.1; fill: rgb(77%,35%,6%); fill-rule: evenodd;"/>
					<circle cx="209.7979002624672" cy="50.58159700878453" r="1.4" style="stroke: rgb(0%,0%,0%); stroke-linecap: butt; stroke-width: 0.1; fill: rgb(77%,35%,6%); fill-rule: evenodd;"/>
					<polyline points="49.98163 16, 81.94488 16.75918, 113.9081 17.75244, 145.8714 18.66335, 177.8346 18.85496, 209.7979 18.72239" style="stroke: rgb(32%,50%,20%); stroke-linecap: round; stroke-width: 1.3; fill: None; fill-rule: evenodd;"/>
					<circle cx="49.98162729658793" cy="16.0" r="1.4" style="stroke: rgb(0%,0%,0%); stroke-linecap: butt; stroke-width: 0.1; fill: rgb(32%,50%,20%); fill-rule: evenodd;"/>
					<circle cx="81.94488188976379" cy="16.75918148514298" r="1.4" style="stroke: rgb(0%,0%,0%); stroke-linecap: butt; stroke-width: 0.1; fill: rgb(32%,50%,20%); fill-rule: evenodd;"/>
					<circle cx="113.90813648293964" cy="17.752435297219545" r="1.4" style="stroke: rgb(0%,0%,0%); stroke-linecap: butt; stroke-width: 0.1; fill: rgb(32%,50%,20%); fill-rule: evenodd;"/>
					<circle cx="145.87139107611551" cy="18.663349507565048" r="1.4" style="stroke: rgb(0%,0%,0%); stroke-linecap: butt; stroke-width: 0.1; fill: rgb(32%,50%,20%); fill-rule: evenodd;"/>
					<circle cx="177.83464566929135" cy="18.85495738580714" r="1.4" style="stroke: rgb(0%,0%,0%); stroke-linecap: butt; stroke-width: 0.1; fill: rgb(32%,50%,20%); fill-rule: evenodd;"/>
					<circle cx="209.7979002624672" cy="18.722385448428827" r="1.4" style="stroke: rgb(0%,0%,0%); stroke-linecap: butt; stroke-width: 0.1; fill: rgb(32%,50%,20%); fill-rule: evenodd;"/>
					<polyline points="49.98163 28.7963, 81.94488 31.95006, 113.9081 31.44774, 145.8714 33.62119, 177.8346 34.08778, 209.7979 35.0567" style="stroke: rgb(43%,18%,62%); stroke-linecap: round; stroke-width: 1.3; fill: None; fill-rule: evenodd;"/>
					<circle cx="49.98162729658793" cy="28.7962991117893" r="1.4" style="stroke: rgb(0%,0%,0%); stroke-linecap: butt; stroke-width: 0.1; fill: rgb(43%,18%,62%); fill-rule: evenodd;"/>
					<circle cx="81.94488188976379" cy="31.95006121582802" r="1.4" style="stroke: rgb(0%,0%,0%); stroke-linecap: butt; stroke-width: 0.1; fill: rgb(43%,18%,62%); fill-rule: evenodd;"/>
					<circle cx="113.90813648293964" cy="31.447737859355513" r="1.4" style="stroke: rgb(0%,0%,0%); stroke-linecap: butt; stroke-width: 0.1; fill: rgb(43%,18%,62%); fill-rule: evenodd;"/>
					<circle cx="145.87139107611551" cy="33.62119262957727" r="1.4" style="stroke: rgb(0%,0%,0%); stroke-linecap: butt; stroke-width: 0.1; fill: rgb(43%,18%,62%); fill-rule: evenodd;"/>
					<circle cx="177.83464566929135" cy="34.08778370605329" r="1.4" style="stroke: rgb(0%,0%,0%); stroke-linecap: butt; stroke-width: 0.1; fill: rgb(43%,18%,62%); fill-rule: evenodd;"/>
					<circle cx="209.7979002624672" cy="35.056698139001796" r="1.4" style="stroke: rgb(0%,0%,0%); stroke-linecap: butt; stroke-width: 0.1; fill: rgb(43%,18%,62%); fill-rule: evenodd;"/>
				</g>
			</g>
		</g>
	</g>
</svg>
