<?xml version="1.0" encoding="utf-8"?>

<svg class="chart-svg"   preserveAspectRatio="xMinYMin meet" viewBox="0 0 243 175" xmlns="http://www.w3.org/2000/svg" version="1.0" fill-rule="evenodd" xmlns:xlink="http://www.w3.org/1999/xlink">
	<title>...</title>
	<desc>...</desc>
	<clipPath id="clip">
		<rect x="0" y="0" width="243.77952755905514" height="175.74803149606302"/>
	</clipPath>
	<g id="group" transform="scale(1,-1) translate(0,-175)" style="clip-path: url(#clip)">
		<g transform="">
			<g transform="">
				<path d="M 34,16 L 34,171.748031 Z" style="stroke: rgb(90%,93%,96%); stroke-linecap: butt; stroke-width: 0.25;"/>
				<path d="M 72.355906,16 L 72.355906,171.748031 Z" style="stroke: rgb(90%,93%,96%); stroke-linecap: butt; stroke-width: 0.25;"/>
				<path d="M 110.711811,16 L 110.711811,171.748031 Z" style="stroke: rgb(90%,93%,96%); stroke-linecap: butt; stroke-width: 0.25;"/>
				<path d="M 149.067717,16 L 149.067717,171.748031 Z" style="stroke: rgb(90%,93%,96%); stroke-linecap: butt; stroke-width: 0.25;"/>
				<path d="M 187.423622,16 L 187.423622,171.748031 Z" style="stroke: rgb(90%,93%,96%); stroke-linecap: butt; stroke-width: 0.25;"/>
				<path d="M 225.779528,16 L 225.779528,171.748031 Z" style="stroke: rgb(90%,93%,96%); stroke-linecap: butt; stroke-width: 0.25;"/>
				<path d="M 34,16 L 225.779528,16 Z" style="stroke: rgb(90%,93%,96%); stroke-linecap: butt; stroke-width: 0.25;"/>
				<path d="M 34,63.018558 L 225.779528,63.018558 Z" style="stroke: rgb(90%,93%,96%); stroke-linecap: butt; stroke-width: 0.25;"/>
				<path d="M 34,110.037115 L 225.779528,110.037115 Z" style="stroke: rgb(90%,93%,96%); stroke-linecap: butt; stroke-width: 0.25;"/>
				<path d="M 34,157.055673 L 225.779528,157.055673 Z" style="stroke: rgb(90%,93%,96%); stroke-linecap: butt; stroke-width: 0.25;"/>
				<g transform="">
					<rect x="41.89680407596109" y="16.0" width="11.281148679944422" height="81.24355365592344" style="stroke: rgb(0%,0%,0%); stroke-linecap: butt; stroke-width: 1; fill: rgb(12%,30%,47%); fill-rule: evenodd;"/>
					<rect x="80.25270958777213" y="16.0" width="11.281148679944422" height="104.69932530984708" style="stroke: rgb(0%,0%,0%); stroke-linecap: butt; stroke-width: 1; fill: rgb(12%,30%,47%); fill-rule: evenodd;"/>
					<rect x="118.60861509958316" y="16.0" width="11.281148679944422" height="77.48376172040952" style="stroke: rgb(0%,0%,0%); stroke-linecap: butt; stroke-width: 1; fill: rgb(12%,30%,47%); fill-rule: evenodd;"/>
					<rect x="156.96452061139416" y="16.0" width="11.281148679944408" height="112.47262131738677" style="stroke: rgb(0%,0%,0%); stroke-linecap: butt; stroke-width: 1; fill: rgb(12%,30%,47%); fill-rule: evenodd;"/>
					<rect x="195.3204261232052" y="16.0" width="11.281148679944408" height="155.74803149606302" style="stroke: rgb(0%,0%,0%); stroke-linecap: butt; stroke-width: 1; fill: rgb(12%,30%,47%); fill-rule: evenodd;"/>
					<rect x="53.177952755905515" y="16.0" width="11.281148679944415" height="33.857969250909285" style="stroke: rgb(0%,0%,0%); stroke-linecap: butt; stroke-width: 1; fill: rgb(18%,45%,71%); fill-rule: evenodd;"/>
					<rect x="91.53385826771654" y="16.0" width="11.281148679944422" height="28.29999960065129" style="stroke: rgb(0%,0%,0%); stroke-linecap: butt; stroke-width: 1; fill: rgb(18%,45%,71%); fill-rule: evenodd;"/>
					<rect x="129.88976377952758" y="16.0" width="11.281148679944408" height="15.688399984634586" style="stroke: rgb(0%,0%,0%); stroke-linecap: butt; stroke-width: 1; fill: rgb(18%,45%,71%); fill-rule: evenodd;"/>
					<rect x="168.2456692913386" y="16.0" width="11.281148679944437" height="27.251015581826366" style="stroke: rgb(0%,0%,0%); stroke-linecap: butt; stroke-width: 1; fill: rgb(18%,45%,71%); fill-rule: evenodd;"/>
					<rect x="206.60157480314965" y="16.0" width="11.281148679944437" height="28.176340794308416" style="stroke: rgb(0%,0%,0%); stroke-linecap: butt; stroke-width: 1; fill: rgb(18%,45%,71%); fill-rule: evenodd;"/>
					<g transform=""/>
				</g>
				<g transform="">
					<g transform="">
						<path d="M 34,16 L 225.779528,16 Z" style="stroke: rgb(78%,83%,87%); stroke-linecap: butt; stroke-width: 1;"/>
					</g>
					<g transform="">
						<path d="M 34,16 L 34,11 Z" style="stroke: rgb(78%,83%,87%); stroke-linecap: butt; stroke-width: 1;"/>
						<path d="M 72.355906,16 L 72.355906,11 Z" style="stroke: rgb(78%,83%,87%); stroke-linecap: butt; stroke-width: 1;"/>
						<path d="M 110.711811,16 L 110.711811,11 Z" style="stroke: rgb(78%,83%,87%); stroke-linecap: butt; stroke-width: 1;"/>
						<path d="M 149.067717,16 L 149.067717,11 Z" style="stroke: rgb(78%,83%,87%); stroke-linecap: butt; stroke-width: 1;"/>
						<path d="M 187.423622,16 L 187.423622,11 Z" style="stroke: rgb(78%,83%,87%); stroke-linecap: butt; stroke-width: 1;"/>
						<path d="M 225.779528,16 L 225.779528,11 Z" style="stroke: rgb(78%,83%,87%); stroke-linecap: butt; stroke-width: 1;"/>
					</g>
					<g transform="">
						<g transform=" matrix(1,0,0,1,53.177953,11)">
							<text x="-11.25" y="-7.5" style="font-family: 'Microsoft YaHei','PingFang SC','Hiragino Sans GB','Source Han Sans SC',sans-serif; font-size: 7.5px;fill: rgb(0%,0%,0%); stroke:none;" transform="translate(0,-15) scale(1,-1)">老百姓</text>
						</g>
						<g transform=" matrix(1,0,0,1,91.533858,11)">
							<text x="-15.0" y="-7.5" style="font-family: 'Microsoft YaHei','PingFang SC','Hiragino Sans GB','Source Han Sans SC',sans-serif; font-size: 7.5px;fill: rgb(0%,0%,0%); stroke:none;" transform="translate(0,-15) scale(1,-1)">益丰药房</text>
						</g>
						<g transform=" matrix(1,0,0,1,129.889764,11)">
							<text x="-11.25" y="-7.5" style="font-family: 'Microsoft YaHei','PingFang SC','Hiragino Sans GB','Source Han Sans SC',sans-serif; font-size: 7.5px;fill: rgb(0%,0%,0%); stroke:none;" transform="translate(0,-15) scale(1,-1)">大参林</text>
						</g>
						<g transform=" matrix(1,0,0,1,168.245669,11)">
							<text x="-11.25" y="-7.5" style="font-family: 'Microsoft YaHei','PingFang SC','Hiragino Sans GB','Source Han Sans SC',sans-serif; font-size: 7.5px;fill: rgb(0%,0%,0%); stroke:none;" transform="translate(0,-15) scale(1,-1)">一心堂</text>
						</g>
						<g transform=" matrix(1,0,0,1,206.601575,11)">
							<text x="-11.25" y="-7.5" style="font-family: 'Microsoft YaHei','PingFang SC','Hiragino Sans GB','Source Han Sans SC',sans-serif; font-size: 7.5px;fill: rgb(0%,0%,0%); stroke:none;" transform="translate(0,-15) scale(1,-1)">健之佳</text>
						</g>
					</g>
				</g>
				<g transform="">
					<g transform="">
						<path d="M 34,16 L 34,171.748031 Z" style="stroke: rgb(78%,83%,87%); stroke-linecap: butt; stroke-width: 1;"/>
					</g>
					<g transform="">
						<path d="M 34,16 L 29,16 Z" style="stroke: rgb(78%,83%,87%); stroke-linecap: butt; stroke-width: 1;"/>
						<path d="M 34,63.018558 L 29,63.018558 Z" style="stroke: rgb(78%,83%,87%); stroke-linecap: butt; stroke-width: 1;"/>
						<path d="M 34,110.037115 L 29,110.037115 Z" style="stroke: rgb(78%,83%,87%); stroke-linecap: butt; stroke-width: 1;"/>
						<path d="M 34,157.055673 L 29,157.055673 Z" style="stroke: rgb(78%,83%,87%); stroke-linecap: butt; stroke-width: 1;"/>
					</g>
					<g transform="">
						<g transform=" matrix(1,0,0,1,29,16)">
							<text x="-3.951416015625" y="-3.0" style="font-family: 'Microsoft YaHei','PingFang SC','Hiragino Sans GB','Source Han Sans SC',sans-serif; font-size: 7.5px;fill: rgb(0%,0%,0%); stroke:none;" transform="translate(0,-6) scale(1,-1)">0</text>
						</g>
						<g transform=" matrix(1,0,0,1,29,63.018558)">
							<text x="-7.90283203125" y="-3.0" style="font-family: 'Microsoft YaHei','PingFang SC','Hiragino Sans GB','Source Han Sans SC',sans-serif; font-size: 7.5px;fill: rgb(0%,0%,0%); stroke:none;" transform="translate(0,-6) scale(1,-1)">50</text>
						</g>
						<g transform=" matrix(1,0,0,1,29,110.037115)">
							<text x="-11.854248046875" y="-3.0" style="font-family: 'Microsoft YaHei','PingFang SC','Hiragino Sans GB','Source Han Sans SC',sans-serif; font-size: 7.5px;fill: rgb(0%,0%,0%); stroke:none;" transform="translate(0,-6) scale(1,-1)">100</text>
						</g>
						<g transform=" matrix(1,0,0,1,29,157.055673)">
							<text x="-11.854248046875" y="-3.0" style="font-family: 'Microsoft YaHei','PingFang SC','Hiragino Sans GB','Source Han Sans SC',sans-serif; font-size: 7.5px;fill: rgb(0%,0%,0%); stroke:none;" transform="translate(0,-6) scale(1,-1)">150</text>
						</g>
					</g>
				</g>
			</g>
		</g>
	</g>
</svg>
